# xmcd CD database file
# Generated: Die Mai 13 21:09:45 2003 by KSCD
# 
# Track frame offsets:
#       150
#       21002
#       52042
#       69250
#       115041
#       130341
#       145491
#       173697
#       225536
#       247307
#
# Disc length: 3649 seconds
#
# Revision: 1
# Processed by: cddbd v1.4PL0 Copyright (c) Steve Scherf et al.
# Submitted via: Kscd 1.3.3
#
DISCID=8a0e3f0a
DTITLE=Ian Parker - Lost and Found
DYEAR=1900
DGENRE=
TTITLE0=Funny how
TTITLE1=I won't let you down
TTITLE2=Big legged woman
TTITLE3=Something more
TTITLE4=The fire
TTITLE5=Catfish blues
TTITLE6=Got no Answer
TTITLE7=Awake at night
TTITLE8=The hustle is on
TTITLE9=To cry
EXTD=
EXTT0=
EXTT1=
EXTT2=
EXTT3=
EXTT4=
EXTT5=
EXTT6=
EXTT7=
EXTT8=
EXTT9=
PLAYORDER=
